# xmcd CD database file
#
# Track frame offsets:
#	150
#	18157
#	40373
#	69891
#	88204
#	108026
#	126559
#	143951
#	165036
#	188948
#	213362
#	236399
#	253582
#	275631
#	292902
#
# Disc length: 4141 seconds
#
# Revision: 0
# Processed by: cddbd v1.5.2PL0 Copyright (c) Steve Scherf et al.
# Submitted via: jetAudio 7
#
DISCID=cf102b0f
DTITLE=Chris Rea - Fool If You Think It's Over
DYEAR=1900
DGENRE=Blues
TTITLE0=Josephine
TTITLE1=On The Beach
TTITLE2=Road To Hell
TTITLE3=Fool (If You Think It's Over)
TTITLE4=Staninsby Girl
TTITLE5=Let's Dance
TTITLE6=Somday My Peace Will Come
TTITLE7=Dancing The Blues Away
TTITLE8=Long Is The Time, Hard Is The Road
TTITLE9=Baby Don't Cry
TTITLE10=Speed
TTITLE11=Born Bad
TTITLE12=Sometimes
TTITLE13=Blues For Janice
TTITLE14=The Shadow Of The Fool
EXTD=
EXTT0=
EXTT1=
EXTT2=
EXTT3=
EXTT4=
EXTT5=
EXTT6=
EXTT7=
EXTT8=
EXTT9=
EXTT10=
EXTT11=
EXTT12=
EXTT13=
EXTT14=
PLAYORDER=
